# AST/ASF file generated using VICON BodyLanguage
# -----------------------------------------------
:version 1.10
:name VICON
:units
  mass 1.0
  length 0.45
  angle deg
:documentation
   .ast/.asf automatically generated from VICON data using
   VICON BodyBuilder and BodyLanguage model FoxedUp or BRILLIANT.MOD
:root
   order TX TY TZ RX RY RZ
   axis XYZ
   position 0 0 0  
   orientation 0 0 0 
:bonedata
  begin
     id 1 
     name lhipjoint
     direction 0.702568 -0.596508 0.388042 
     length 2.56661 
     axis 0 0 0  XYZ
  end
  begin
     id 2 
     name lfemur
     direction 0.34202 -0.939693 0  
     length 6.58374  
     axis 0 0 20  XYZ
    dof rx ry rz
    limits (-160.0 20.0)
           (-70.0 70.0)
           (-60.0 70.0)
  end
  begin
     id 3 
     name ltibia
     direction 0.34202 -0.939693 0   
     length 6.62538   
     axis 0 0 20   XYZ
    dof rx
    limits (-10.0 170.0)
  end
  begin
     id 4 
     name lfoot
     direction 0.10455 -0.287249 0.952133   
     length 2.26699   
     axis -90 7.62852e-016 20   XYZ
    dof rx rz
    limits (-45.0 90.0)
           (-70.0 20.0)
  end
  begin
     id 5 
     name ltoes
     direction 1.53572e-011 -4.22322e-011 1   
     length 1.12949   
     axis -90 7.62852e-016 20   XYZ
    dof rx
    limits (-90.0 20.0)
  end
  begin
     id 6 
     name rhipjoint
     direction -0.728055 -0.574632 0.373811   
     length 2.66432  
     axis 0 0 0  XYZ 
  end
  begin
     id 7 
     name rfemur
     direction -0.34202 -0.939693 0   
     length 6.66732   
     axis 0 0 -20   XYZ
    dof rx ry rz
    limits (-160.0 20.0)
           (-70.0 70.0)
           (-70.0 60.0)
  end
  begin
     id 8 
     name rtibia
     direction -0.34202 -0.939693 0   
     length 6.59288   
     axis 0 0 -20   XYZ
    dof rx
    limits (-10.0 170.0)
 end
 begin
     id 9 
     name rfoot
     direction -0.119193 -0.327479 0.93731   
     length 2.38061  
     axis -90 -7.62852e-016 -20   XYZ
    dof rx rz
    limits (-45.0 90.0)
           (-20.0 70.0)
  end
  begin
     id 10 
     name rtoes
     direction -1.53547e-011 -4.21827e-011 1   
     length 1.17899   
     axis -90 -7.62852e-016 -20   XYZ
    dof rx
    limits (-90.0 20.0)
  end
  begin
     id 11 
     name lowerback
     direction -0.000416114 0.999912 -0.0132284   
     length 2.12109   
     axis 0 0 0   XYZ
    dof rx ry rz
    limits (-20.0 45.0)
           (-30.0 30.0)
           (-30.0 30.0)
  end
  begin
     id 12 
     name upperback
     direction -0.00136371 0.99809 0.0617608   
     length 2.10067   
     axis 0 0 0   XYZ
    dof rx ry rz
    limits (-20.0 45.0)
           (-30.0 30.0)
           (-30.0 30.0)
  end
  begin
     id 13 
     name thorax
     direction -3.43026e-005 0.997776 0.0666515   
     length 2.10618   
     axis 0 0 0   XYZ
    dof rx ry rz
    limits (-20.0 45.0)
           (-30.0 30.0)
           (-30.0 30.0)
  end
  begin
     id 14 
     name lowerneck
     direction 0.0398646 0.998418 0.0396592   
     length 1.83817   
     axis 0 0 0   XYZ
    dof rx ry rz
    limits (-20.0 45.0)
           (-30.0 30.0)
           (-30.0 30.0)
  end
  begin
     id 15 
     name upperneck
     direction -0.0367268 0.961527 -0.272244   
     length 1.81975   
     axis 0 0 0   XYZ
    dof rx ry rz
    limits (-20.0 45.0)
           (-30.0 30.0)
           (-30.0 30.0)
  end
  begin
     id 16
     name head
     direction -0.0182665 0.99536 -0.0944669  
     length 1.86026  
     axis 0 0 0   XYZ
    dof rx ry rz
    limits (-20.0 45.0)
           (-30.0 30.0)
           (-30.0 30.0)
  end
  begin
     id 17 
     name lclavicle
     direction 0.924239 0.361045 0.124212  
     length 3.26878  
     axis 0 0 0   XYZ
    dof ry rz
    limits (-20.0 10.0)
           (0.0 20.0)
  end
  begin
     id 18 
     name lhumerus
     direction 1 -4.48968e-011 -2.56583e-027   
     length 4.58538   
     axis 180 -30 -90   XYZ
    dof rx ry rz
    limits (-60.0 90.0)
           (-90.0 90.0)
           (-90.0 90.0)
  end
  begin
     id 19
     name lradius
     direction 1 -4.4898e-011 -5.50375e-027   
     length 2.68935   
     axis 180 -30 -90   XYZ
    dof rx
    limits (-10.0 170.0)
  end
  begin
     id 20
     name lwrist
     direction 1 -4.48939e-011 -1.48955e-026   
     length 1.34468   
     axis 9.0955e-015 90 90   XYZ
    dof ry
    limits (-180.0 0.0)
 end
  begin
     id 21 
     name lhand
     direction 1 -4.48936e-011 -2.97907e-026   
     length 0.585058   
     axis 1.90115e-014 90 90   XYZ
    dof rx rz
    limits (-90.0 90.0)
           (-45.0 45.0)
  end
  begin
     id 22 
     name lfingers
     direction 1 -4.49082e-011 -5.96235e-026   
     length 0.471689   
     axis 3.80223e-014 90 90   XYZ
    dof rx
    limits (0.0 90.0)
  end
  begin
     id 23
     name lthumb
     direction 0.707107 -6.3489e-011 0.707107   
     length 0.677253   
     axis -90 45 -3.84942e-014   XYZ
    dof rx rz
    limits (-45.0 45.0)
           (-45.0 45.0)
  end
  begin
     id 24 
     name rclavicle
     direction -0.923098 0.371783 0.0983239   
     length 3.19656  
     axis 0 0 0   XYZ 
    dof ry rz
    limits (-10.0 20.0)
           (-20.0 0.0)
  end
  begin
     id 25 
     name rhumerus
     direction -1 -4.48976e-011 -2.5492e-027  
     length 4.4745   
     axis 180 30 90   XYZ
    dof rx ry rz
    limits (-90.0 60.0)
           (-90.0 90.0)
           (-90.0 90.0)
  end
  begin
     id 26 
     name rradius
     direction -1 -4.48941e-011 -4.36555e-027   
     length 2.93896   
     axis 180 30 90   XYZ
    dof rx
    limits (-10.0 170.0)
  end
  begin
     id 27 
     name rwrist
     direction -1 -4.49044e-011 -1.49032e-026   
     length 1.46948   
     axis 9.0955e-015 -90 -90   XYZ
    dof ry
    limits (-180.0 0.0)
  end
  begin
     id 28
     name rhand
     direction -1 -4.48826e-011 -2.97749e-026   
     length 0.405092   
     axis 1.90115e-014 -90 -90   XYZ
    dof rx rz
    limits (-90.0 90.0)
           (-45.0 45.0)
  end
  begin
     id 29
     name rfingers
     direction -1 -4.49209e-011 -5.96602e-026   
     length 0.326596   
     axis 3.80223e-014 -90 -90   XYZ
    dof rx
    limits (0.0 90.0)
  end
  begin
     id 30
     name rthumb
     direction -0.707107 -6.34776e-011 0.707107   
     length 0.468928   
     axis -90 -45 3.84942e-014   XYZ
    dof rx rz
    limits (-45.0 45.0)
           (-45.0 45.0)
  end
:hierarchy
  begin
    root lhipjoint rhipjoint lowerback
    lhipjoint lfemur
    lfemur ltibia
    ltibia lfoot
    lfoot ltoes
    rhipjoint rfemur
    rfemur rtibia
    rtibia rfoot
    rfoot rtoes
    lowerback upperback
    upperback thorax
    thorax lowerneck lclavicle rclavicle
    lowerneck upperneck
    upperneck head
    lclavicle lhumerus
    lhumerus lradius
    lradius lwrist
    lwrist lhand lthumb
    lhand lfingers
    rclavicle rhumerus
    rhumerus rradius
    rradius rwrist
    rwrist rhand rthumb
    rhand rfingers
  end

#!OML:ASF H:\Punching\Project 1\Capture day 1\Session 1\female.ASF
:FULLY-SPECIFIED
:DEGREES
121
root 1.74002 15.8228 4.25475 14.7169 -13.9115 -1.51586
lowerback 1.96852 -0.934071 -4.13312
upperback -6.52777 -1.45409 1.14654
thorax -7.82355 -0.425808 3.6506
lowerneck -12.795 0.489202 7.8187
upperneck 29.4053 -0.249376 -3.99375
head 11.7029 0.203302 -2.88621
rclavicle 2.86561e-014 -1.39149e-015
rhumerus -3.00998 8.49373 -78.8089
rradius 131.131
rwrist -52.2229
rhand -13.1935 -8.07345
rfingers 7.12502
rthumb 12.9067 -37.6543
lclavicle 2.86561e-014 -1.39149e-015
lhumerus 7.9431 -20.5729 69.372
lradius 137.364
lwrist 2.46712
lhand -22.8071 8.27251
lfingers 7.12502
lthumb 3.62934 38.2214
rfemur -15.5067 3.77462 5.82514
rtibia 28.4723
rfoot -18.3727 -16.9021
rtoes -7.19453
lfemur -26.2893 -1.79733 -18.4164
ltibia 29.8435
lfoot -13.8718 18.4323
ltoes 0.817449
122
root 1.74478 15.8189 4.22466 14.726 -14.1168 -1.63325
lowerback 1.91706 -0.857672 -3.96147
upperback -6.47641 -1.34121 1.09133
thorax -7.75109 -0.385541 3.48403
lowerneck -12.7006 0.876317 8.34501
upperneck 29.6977 0.270897 -4.28681
head 11.8397 0.46611 -3.02554
rclavicle 3.08986e-014 -7.35503e-015
rhumerus -2.78563 8.93705 -79.206
rradius 131.795
rwrist -52.3199
rhand -12.7029 -7.83191
rfingers 7.12502
rthumb 13.3796 -37.3823
lclavicle 3.08986e-014 -7.35503e-015
lhumerus 8.94903 -21.5653 69.2814
lradius 137.544
lwrist 2.33967
lhand -23.1825 8.35688
lfingers 7.12502
lthumb 3.26685 38.3116
rfemur -14.6536 3.35123 5.65498
rtibia 28.6059
rfoot -17.1723 -17.3759
rtoes -5.11479
lfemur -26.5148 -1.50714 -18.3316
ltibia 30.1329
lfoot -13.8876 18.3607
ltoes 0.759113
123
root 1.74812 15.8148 4.19524 14.7432 -14.3565 -1.72336
lowerback 1.84631 -0.774551 -3.81881
upperback -6.43789 -1.2211 1.03206
thorax -7.68099 -0.339595 3.32903
lowerneck -12.5583 1.24367 8.83921
upperneck 29.9156 0.784383 -4.59819
head 11.9422 0.719062 -3.16524
rclavicle 3.11346e-014 1.70955e-014
rhumerus -2.61738 9.37669 -79.5456
rradius 132.438
rwrist -52.3846
rhand -12.2202 -7.59955
rfingers 7.12502
rthumb 13.8448 -37.1188
lclavicle 3.11346e-014 1.70955e-014
lhumerus 9.89663 -22.4592 69.2279
lradius 137.675
lwrist 2.38658
lhand -23.528 8.20137
lfingers 7.12502
lthumb 2.93322 38.1609
rfemur -13.8702 2.97817 5.43662
rtibia 28.7676
rfoot -15.8684 -17.8345
rtoes -3.03195
lfemur -26.7403 -1.18889 -18.2784
ltibia 30.4124
lfoot -13.905 18.2875
ltoes 0.694277
124
root 1.74981 15.8103 4.16616 14.7585 -14.6267 -1.78154
lowerback 1.76881 -0.688581 -3.71502
upperback -6.4091 -1.09975 0.971498
thorax -7.61664 -0.290235 3.19483
lowerneck -12.3678 1.59416 9.29565
upperneck 30.0566 1.29665 -4.92779
head 12.009 0.964092 -3.30361
rclavicle -5.83185e-014 5.1684e-015
rhumerus -2.50284 9.81257 -79.8232
rradius 133.064
rwrist -52.4588
rhand -11.7661 -7.37602
rfingers 7.12502
rthumb 14.2824 -36.8649
lclavicle -5.83185e-014 5.1684e-015
lhumerus 10.7682 -23.2707 69.2163
lradius 137.786
lwrist 2.51228
lhand -23.8489 7.89737
lfingers 7.12502
lthumb 2.62332 37.861
rfemur -13.1503 2.63739 5.17161
rtibia 28.953
rfoot -14.4914 -18.2666
rtoes -1.00763
lfemur -26.9562 -0.845226 -18.2593
ltibia 30.6771
lfoot -13.9205 18.2067
ltoes 0.616589
125
root 1.74964 15.805 4.13681 14.766 -14.9215 -1.81018
lowerback 1.69912 -0.60247 -3.65094
upperback -6.38786 -0.981105 0.911554
thorax -7.56397 -0.239251 3.08446
lowerneck -12.1408 1.9292 9.72033
upperneck 30.127 1.80813 -5.28046
head 12.0443 1.20168 -3.44383
rclavicle -2.37672e-014 7.95139e-015
rhumerus -2.43789 10.24 -80.0411
rradius 133.674
rwrist -52.5762
rhand -11.3501 -7.17717
rfingers 7.12502
rthumb 14.6832 -36.6372
lclavicle -2.37672e-014 7.95139e-015
lhumerus 11.5499 -24.0011 69.2541
lradius 137.889
lwrist 2.65795
lhand -24.1404 7.50436
lfingers 7.12502
lthumb 2.34179 37.4713
rfemur -12.4863 2.31628 4.86801
rtibia 29.153
rfoot -13.073 -18.6663
rtoes 0.910637
lfemur -27.1591 -0.482938 -18.267
ltibia 30.928
lfoot -13.9344 18.1149
ltoes 0.523207
126
root 1.74735 15.7988 4.10665 14.7624 -15.2388 -1.8095
lowerback 1.64242 -0.52166 -3.63311
upperback -6.36986 -0.872557 0.856475
thorax -7.52092 -0.189932 3.00656
lowerneck -11.8804 2.25723 10.1167
upperneck 30.125 2.33011 -5.65941
head 12.0492 1.43709 -3.58623
rclavicle 2.35933e-014 -3.18055e-015
rhumerus -2.41574 10.6734 -80.204
rradius 134.264
rwrist -52.7374
rhand -10.9866 -7.01193
rfingers 7.12502
rthumb 15.0334 -36.4461
lclavicle 2.35933e-014 -3.18055e-015
lhumerus 12.2303 -24.6652 69.338
lradius 138.005
lwrist 2.76262
lhand -24.4151 7.08422
lfingers 7.12502
lthumb 2.07647 37.0539
rfemur -11.8712 2.0134 4.53017
rtibia 29.354
rfoot -11.6451 -19.0372
rtoes 2.70949
lfemur -27.3493 -0.1092 -18.2969
ltibia 31.1673
lfoot -13.9493 18.0141
ltoes 0.414736
127
root 1.7429 15.7915 4.07532 14.7482 -15.5692 -1.79105
lowerback 1.60518 -0.448769 -3.64859
upperback -6.35156 -0.776772 0.809292
thorax -7.48748 -0.144372 2.95722
lowerneck -11.6098 2.58017 10.4892
upperneck 30.0681 2.86177 -6.06658
head 12.0355 1.67056 -3.73299
rclavicle -2.36057e-015 1.35174e-014
rhumerus -2.43033 11.1116 -80.3159
rradius 134.829
rwrist -52.9511
rhand -10.6903 -6.88242
rfingers 7.12502
rthumb 15.3188 -36.295
lclavicle -2.36057e-015 1.35174e-014
lhumerus 12.8222 -25.2868 69.4486
lradius 138.146
lwrist 2.78159
lhand -24.6985 6.74752
lfingers 7.12502
lthumb 1.80274 36.7196
rfemur -11.2947 1.73107 4.17464
rtibia 29.5404
rfoot -10.2198 -19.3946
rtoes 4.37688
lfemur -27.5284 0.27132 -18.3341
ltibia 31.3991
lfoot -13.9666 17.9039
ltoes 0.282602
128
root 1.7362 15.7831 4.04257 14.7271 -15.9109 -1.76659
lowerback 1.58689 -0.384542 -3.68597
upperback -6.33043 -0.693909 0.771592
thorax -7.46083 -0.103417 2.93154
lowerneck -11.3455 2.90027 10.8433
upperneck 29.9661 3.40213 -6.50117
head 12.011 1.90259 -3.88511
rclavicle -4.63417e-015 1.11319e-014
rhumerus -2.47629 11.5526 -80.3848
rradius 135.359
rwrist -53.2217
rhand -10.4427 -6.78217
rfingers 7.12502
rthumb 15.5573 -36.1764
lclavicle -4.63417e-015 1.11319e-014
lhumerus 13.3383 -25.8634 69.5732
lradius 138.308
lwrist 2.67409
lhand -24.9821 6.48484
lfingers 7.12502
lthumb 1.52888 36.4591
rfemur -10.7538 1.48892 3.81699
rtibia 29.6946
rfoot -8.79581 -19.7705
rtoes 5.97171
lfemur -27.7004 0.654385 -18.3649
ltibia 31.6273
lfoot -13.992 17.7938
ltoes 0.139891
129
root 1.7273 15.7737 4.00853 14.7032 -16.2662 -1.74107
lowerback 1.58635 -0.325313 -3.73484
upperback -6.31944 -0.619028 0.738781
thorax -7.45488 -0.0649655 2.91847
lowerneck -11.0512 3.20935 11.1804
upperneck 29.8216 3.93958 -6.95509
head 11.9681 2.12986 -4.04143
rclavicle -4.68759e-014 -1.23246e-014
rhumerus -2.58247 11.989 -80.4245
rradius 135.85
rwrist -53.5561
rhand -10.2247 -6.7027
rfingers 7.12502
rthumb 15.7673 -36.0805
lclavicle -4.68759e-014 -1.23246e-014
lhumerus 13.7558 -26.4168 69.7196
lradius 138.479
lwrist 2.43563
lhand -25.2749 6.2901
lfingers 7.12502
lthumb 1.2461 36.2662
rfemur -10.2481 1.30275 3.46443
rtibia 29.7988
rfoot -7.37905 -20.1807
rtoes 7.52425
lfemur -27.8701 1.04707 -18.3868
ltibia 31.8582
lfoot -14.0328 17.6854
ltoes 0.000811728
130
root 1.71635 15.763 3.97315 14.679 -16.6337 -1.7201
lowerback 1.5987 -0.270888 -3.78385
upperback -6.31491 -0.551187 0.707944
thorax -7.46288 -0.0295383 2.90833
lowerneck -10.7405 3.50872 11.5049
upperneck 29.6455 4.47161 -7.42337
head 11.9138 2.3526 -4.20143
rclavicle 2.95816e-014 9.93923e-015
rhumerus -2.74258 12.4089 -80.4447
rradius 136.301
rwrist -53.9728
rhand -10.0095 -6.64864
rfingers 7.12502
rthumb 15.9745 -36.01
lclavicle 2.95816e-014 9.93923e-015
lhumerus 14.105 -26.9203 69.8719
lradius 138.641
lwrist 2.08094
lhand -25.5513 6.04971
lfingers 7.12502
lthumb 0.979159 36.0272
rfemur -9.77405 1.19102 3.12472
rtibia 29.8366
rfoot -5.96608 -20.6423
rtoes 9.04266
lfemur -28.0422 1.44771 -18.3955
ltibia 32.0984
lfoot -14.0922 17.5883
ltoes -0.129749
131
root 1.70341 15.751 3.93645 14.6611 -17.0178 -1.70827
lowerback 1.61753 -0.219085 -3.82408
upperback -6.32074 -0.487071 0.675345
thorax -7.48562 0.00389565 2.89182
lowerneck -10.4043 3.79675 11.8226
upperneck 29.4409 4.99464 -7.90477
head 11.8473 2.57044 -4.36632
rclavicle 1.0958e-014 1.98785e-015
rhumerus -2.95614 12.8095 -80.4575
rradius 136.713
rwrist -54.4903
rhand -9.79333 -6.6092
rfingers 7.12502
rthumb 16.1827 -35.9537
lclavicle 1.0958e-014 1.98785e-015
lhumerus 14.378 -27.3832 70.0344
lradius 138.791
lwrist 1.64873
lhand -25.8216 5.79524
lfingers 7.12502
lthumb 0.71807 35.7738
rfemur -9.33676 1.17225 2.80481
rtibia 29.7947
rfoot -4.5842 -21.168
rtoes 10.5071
lfemur -28.2269 1.86196 -18.3893
ltibia 32.3584
lfoot -14.1729 17.5092
ltoes -0.255639
132
root 1.68869 15.7373 3.89887 14.6479 -17.4213 -1.69648
lowerback 1.63155 -0.172549 -3.85967
upperback -6.33327 -0.430109 0.638495
thorax -7.51224 0.0335024 2.86874
lowerneck -10.0419 4.07696 12.1324
upperneck 29.2067 5.51329 -8.39834
head 11.7687 2.78573 -4.5349
rclavicle 4.84538e-015 4.37326e-015
rhumerus -3.21572 13.1985 -80.4714
rradius 137.092
rwrist -55.114
rhand -9.58854 -6.60614
rfingers 7.12502
rthumb 16.3798 -35.9345
lclavicle 4.84538e-015 4.37326e-015
lhumerus 14.5819 -27.801 70.2022
lradius 138.933
lwrist 1.18454
lhand -26.0898 5.49976
lfingers 7.12502
lthumb 0.458989 35.479
rfemur -8.93204 1.24511 2.4955
rtibia 29.6637
rfoot -3.26071 -21.76
rtoes 11.8473
lfemur -28.4279 2.28797 -18.3799
ltibia 32.6501
lfoot -14.2849 17.4522
ltoes -0.363187
133
root 1.67229 15.7214 3.86038 14.6433 -17.8469 -1.69107
lowerback 1.63425 -0.128999 -3.87764
upperback -6.34576 -0.376277 0.594026
thorax -7.53187 0.0600322 2.82783
lowerneck -9.67635 4.35033 12.436
upperneck 28.95 6.02472 -8.90044
head 11.6852 2.99765 -4.70648
rclavicle -6.12257e-014 -1.11319e-014
rhumerus -3.50243 13.5778 -80.495
rradius 137.437
rwrist -55.8214
rhand -9.4294 -6.66786
rfingers 7.12502
rthumb 16.5331 -35.9835
lclavicle -6.12257e-014 -1.11319e-014
lhumerus 14.7313 -28.1734 70.3724
lradius 139.068
lwrist 0.740971
lhand -26.3638 5.1672
lfingers 7.12502
lthumb 0.194385 35.1469
rfemur -8.55891 1.41247 2.20621
rtibia 29.4371
rfoot -2.02563 -22.4203
rtoes 12.9699
lfemur -28.6541 2.72819 -18.3615
ltibia 32.9875
lfoot -14.4301 17.4199
ltoes -0.470146
